<svg xmlns="http://www.w3.org/2000/svg" width="256" height="256" viewBox="0 0 100 100">
  <rect width="100" height="100" rx="20" fill="#0fa382"></rect>
  <path fill="#fafafa" d="M22.57 67.07L15.42 67.07L15.42 32.93L22.63 32.93L32.64 53.45L42.66 32.93L49.81
    32.93L49.81 67.07L42.66 67.07L42.66 44.86L34.71 61.18L30.58 61.18L22.57 44.86L22.57 67.07ZM73.77 67.07L55.86
    67.07L55.86 32.93L73.13 32.93Q78.28 32.93 80.79 35.35Q83.31 37.76 83.31 42.16L83.31 42.16Q83.31 44.91 82.25
    46.74Q81.19 48.57 79.39 49.58L79.39 49.58Q81.77 50.32 83.18 52.04Q84.58 53.76 84.58 57.10L84.58 57.10Q84.58
    62.03 81.80 64.55Q79.02 67.07 73.77 67.07L73.77 67.07ZM63.01 38.23L63.01 47.09L71.81 47.09Q74.41 47.09 75.52
    45.95Q76.63 44.81 76.63 42.74L76.63 42.74Q76.63 40.46 75.49 39.35Q74.35 38.23 71.28 38.23L71.28 38.23L63.01
    38.23ZM63.01 52.28L63.01 61.82L72.07 61.82Q74.78 61.82 76.05 60.71Q77.32 59.59 77.32 56.78L77.32 56.78Q77.32
    54.51 76.08 53.39Q74.83 52.28 71.60 52.28L71.60 52.28L63.01 52.28Z"></path>
</svg>